<mxfile host="app.diagrams.net" modified="2024-04-15T21:46:21.247Z" agent="Mozilla/5.0 (X11; Linux x86_64) AppleWebKit/537.36 (KHTML, like Gecko) Chrome/123.0.0.0 Safari/537.36" version="24.2.5" etag="aEoyzULulnpNPu7o6TF_" type="github">
  <diagram name="Page-1" id="cqx54OTji2teAWUga4x_">
    <mxGraphModel>
      <root>
        <mxCell id="0" />
        <mxCell id="1" parent="0" />
      </root>
    </mxGraphModel>
  </diagram>
</mxfile>
